# xmcd
#
# Track frame offsets:
#	150
#	7535
#	18867
#	30075
#	41302
#	52711
#	62066
#	72961
#	83649
#	94897
#	106162
#	115963
#	130663
#	141987
#	148894
#	157290
#	167547
#	172011
#	186397
#	199702
#	210601
#	221785
#	232281
#	244180
#	255914
#	266192
#	280884
#	293648
#	305962
#	317282
#	330647
#
# Disc length: 4799 seconds
#
# Revision: 0
# Processed by: cddbd v1.4b41PL3 Copyright (c) Steve Scherf et al.
# Submitted via: audiograbber 1.80
#
DISCID=bd12bd1f
DTITLE=Dj Sefu - For The People (Session 6)
DYEAR=1900
DGENRE=
TTITLE0=Intrdeezy - Introdeezy
TTITLE1=Ideal - Whatever
TTITLE2=Smooth Approach - Everybody On The Dancefloor
TTITLE3=Next - Wifey
TTITLE4=Horace Brown - Shake It Up
TTITLE5=Mary Mary - Shackles
TTITLE6=DMX - Party Up In Here
TTITLE7=J - Shin FT. Trick Daddy and Trina
TTITLE8=DJ Quick FT. Eminem - Pitch In On A Party
TTITLE9=Craig David - Fill Me In (Remix)
TTITLE10=Lucy Pearl - Don't Mess With My Man
TTITLE11=Jennifer Lopez FT. Fat Joe and Big Pun - Feels So Good
TTITLE12=Tony Touch FT. Total - I Wonder Why-
TTITLE13=Wyclef Jean FT. The Rock and Melky Sedeck - It Doesn't Matter
TTITLE14=Redman and Eminem - Off The Wall
TTITLE15=Sisqo Ft. Foxy Brown - Thong Song (Uncensored)
TTITLE16=MI - Midtrodeezy
TTITLE17=Blaque FT. 50 Cent - Bring It All To Me
TTITLE18=Alfonso Hunter - Girlfriend
TTITLE19=Keesha FT. Sporty Theivez - Somebody's Baby (Remix)
TTITLE20=Carlos Santana FT. The Product G&B - Maria Maria (Remix)
TTITLE21=DR. Dre FT. Snoop and Nate Dogg - The Next Episode
TTITLE22=Aaliyah FT. Timbaland - Try Again
TTITLE23=Jagged Edge FT. JD - Let's Get Married (Remix)
TTITLE24=Ruff Endz - No More
TTITLE25=En Vogue FT. Mase - Riddle (cLoudcHaser Remix)
TTITLE26=Reid - One More Time
TTITLE27=Parle - It's Going Down
TTITLE28=Craig David - 7 Days (Remix)
TTITLE29=Destiny's Child FT. Lil' Bow Wow, JD and DA BRAT - Jumpin' Jumpin' (Remi
TTITLE29=x)
TTITLE30=MI - MiamiMegaBlend
EXTD=
EXTT0=
EXTT1=
EXTT2=
EXTT3=
EXTT4=
EXTT5=
EXTT6=
EXTT7=
EXTT8=
EXTT9=
EXTT10=
EXTT11=
EXTT12=
EXTT13=
EXTT14=
EXTT15=
EXTT16=
EXTT17=
EXTT18=
EXTT19=
EXTT20=
EXTT21=
EXTT22=
EXTT23=
EXTT24=
EXTT25=
EXTT26=
EXTT27=
EXTT28=
EXTT29=
EXTT30=
PLAYORDER=
